<?xml version="1.0" encoding="UTF-8" ?>
<!DOCTYPE svg PUBLIC "-//W3C//DTD SVG 1.1//EN" "http://www.w3.org/Graphics/SVG/1.1/DTD/svg11.dtd">
<svg width="800pt" height="800pt" viewBox="0 0 800 800" version="1.1" xmlns="http://www.w3.org/2000/svg">
<g id="#7cb9e5ff">
<path fill="#7cb9e5" opacity="1.00" d=" M 0.00 0.00 L 800.00 0.00 L 800.00 800.00 L 0.00 800.00 L 0.00 0.00 M 367.95 198.85 C 365.99 200.08 363.70 200.62 361.65 201.66 C 355.83 206.21 351.15 211.96 347.08 218.09 C 344.92 221.60 342.44 225.11 341.52 229.20 C 339.96 241.80 347.06 253.73 355.83 262.18 C 357.56 263.56 359.13 266.11 361.67 265.58 C 365.38 264.87 368.83 266.62 372.28 267.67 C 373.55 270.94 375.63 273.86 376.69 277.21 C 376.81 279.93 376.82 282.71 376.37 285.40 C 368.89 290.34 361.23 279.84 353.52 283.60 C 346.80 288.50 346.28 300.95 353.67 305.48 C 357.78 302.02 363.16 300.84 368.02 298.80 C 372.75 296.88 375.35 302.00 378.63 304.31 C 382.63 306.81 387.29 309.24 392.16 308.42 C 390.98 308.80 389.87 309.34 388.75 309.86 C 390.88 310.16 393.01 310.48 395.17 310.48 C 390.48 311.01 385.75 311.83 381.02 311.21 C 377.34 310.46 374.43 307.86 370.94 306.63 C 368.53 307.69 369.88 310.55 370.96 312.11 C 373.21 314.36 376.19 315.72 379.11 316.91 C 385.53 319.19 392.35 317.46 398.96 317.47 C 415.19 317.12 430.79 311.89 445.48 305.35 C 446.93 303.41 445.07 301.18 444.64 299.18 C 437.69 299.28 432.10 304.22 425.31 305.13 C 424.63 304.74 423.27 303.96 422.59 303.57 C 429.52 299.64 436.82 295.53 444.99 295.29 C 449.92 294.85 454.10 298.21 458.95 298.41 C 462.98 298.63 467.05 297.97 470.92 296.83 C 473.36 296.22 474.18 293.26 473.11 291.17 C 472.47 287.85 469.02 286.81 466.39 285.54 C 461.94 283.27 457.12 281.33 452.05 281.35 C 445.21 281.27 438.24 281.59 431.68 283.71 C 426.32 285.45 420.71 286.35 415.45 288.42 C 407.42 291.67 398.61 292.90 390.00 292.44 C 387.27 291.80 383.33 292.03 381.95 289.09 C 385.18 288.48 388.47 288.62 391.74 288.43 C 397.73 288.13 403.49 286.26 409.46 285.71 C 413.98 285.39 418.03 283.22 422.38 282.20 C 428.46 280.74 434.89 279.95 440.48 276.99 C 441.06 274.30 439.41 271.93 438.32 269.63 C 440.27 268.01 442.19 265.91 444.95 265.97 C 451.08 265.58 457.35 265.18 463.16 263.00 C 470.22 260.07 476.46 255.20 481.35 249.37 C 483.90 245.01 485.62 240.05 486.10 235.02 C 485.35 227.67 483.82 220.25 480.37 213.66 C 477.45 207.67 474.00 201.60 468.34 197.81 C 465.07 195.87 461.32 194.98 457.64 194.20 C 451.51 192.99 445.21 191.95 438.96 192.76 C 433.61 193.55 428.49 195.90 422.98 195.42 C 419.48 195.75 416.34 194.11 413.23 192.81 C 407.18 189.99 400.38 191.95 394.00 190.97 C 384.64 189.76 375.63 193.91 367.95 198.85 M 440.08 314.11 C 436.83 317.20 434.69 321.81 430.04 323.11 C 429.78 322.67 429.26 321.78 429.01 321.34 C 428.62 319.19 428.33 316.83 426.59 315.31 C 422.48 314.94 418.86 317.33 414.96 318.19 C 405.31 321.30 395.05 321.35 385.00 321.34 C 379.64 321.14 373.45 320.69 369.57 316.49 C 368.45 315.65 367.30 313.47 365.66 314.64 C 365.08 318.69 367.96 322.36 370.95 324.77 L 369.97 324.35 C 370.20 325.06 370.66 326.46 370.89 327.16 C 368.87 326.02 366.99 324.66 364.96 323.58 C 364.67 323.96 364.11 324.72 363.83 325.09 C 363.83 329.38 367.73 331.95 371.06 333.83 C 381.36 339.50 393.76 339.29 405.03 337.26 C 414.54 335.59 424.03 333.54 433.16 330.32 C 438.00 337.92 447.80 342.67 456.64 339.65 C 461.43 337.90 467.02 336.54 470.07 332.08 C 474.41 326.46 473.49 317.53 468.10 312.90 C 464.84 309.90 460.60 307.11 455.98 307.70 C 450.27 308.55 444.90 311.01 440.08 314.11 M 266.36 351.38 C 261.32 352.69 257.56 357.06 255.80 361.81 C 253.80 366.97 254.38 372.59 254.34 378.00 C 254.35 391.35 254.37 404.69 254.32 418.04 C 254.27 423.65 254.95 429.78 258.82 434.17 C 264.90 442.16 279.07 442.24 284.85 433.85 C 288.09 429.67 288.69 424.16 288.72 419.04 C 288.65 403.01 288.68 386.98 288.72 370.94 C 288.74 365.18 287.19 359.11 283.19 354.81 C 278.92 350.38 272.02 349.91 266.36 351.38 M 352.15 352.31 C 351.88 356.88 351.84 361.47 352.06 366.05 C 355.34 366.58 361.94 364.86 361.87 369.98 C 361.98 388.04 361.77 406.12 361.96 424.19 C 358.88 425.77 355.39 425.79 352.01 425.83 C 351.88 430.15 351.92 434.48 352.12 438.80 C 366.73 438.65 381.35 438.71 395.97 438.74 C 396.37 431.57 396.47 424.36 395.85 417.20 C 393.13 417.36 390.42 417.51 387.71 417.74 C 387.62 420.32 387.51 422.90 387.42 425.49 C 383.75 425.62 380.07 425.65 376.40 425.61 C 375.73 424.94 375.06 424.27 374.40 423.60 C 374.30 416.52 374.42 409.44 374.33 402.36 C 378.50 402.49 382.67 402.46 386.83 402.24 C 386.90 397.57 386.91 392.89 386.81 388.22 C 382.64 388.18 378.47 388.07 374.31 387.83 C 374.39 380.91 374.40 373.98 374.29 367.05 C 378.06 365.44 382.63 364.68 386.43 366.59 C 387.57 368.77 387.35 371.30 387.50 373.68 C 390.31 373.68 393.13 373.70 395.95 373.73 C 396.39 366.60 396.49 359.44 395.93 352.32 C 381.34 352.45 366.74 352.49 352.15 352.31 M 406.29 352.30 C 406.32 357.06 406.30 361.83 406.30 366.60 C 409.53 366.72 413.50 365.51 416.02 368.17 C 416.70 384.08 416.09 400.05 416.29 415.99 C 416.04 418.75 416.75 421.93 415.32 424.40 C 412.68 426.15 409.25 425.23 406.27 425.39 C 406.27 429.84 406.27 434.29 406.24 438.74 C 414.88 438.73 423.53 438.68 432.17 438.76 C 432.51 434.64 432.54 430.49 432.16 426.37 C 430.56 425.23 427.70 424.51 428.14 422.01 C 428.03 411.29 428.23 400.57 428.28 389.85 C 433.30 406.03 437.50 422.44 442.13 438.73 C 445.98 438.73 449.84 438.71 453.70 438.70 C 453.67 418.47 453.75 398.24 453.68 378.01 C 453.71 374.75 453.41 371.45 454.08 368.25 C 455.88 365.21 460.12 366.56 463.05 366.01 C 463.31 361.44 463.31 356.86 462.87 352.31 C 456.20 352.48 449.53 352.44 442.86 352.31 C 442.09 368.97 443.02 385.66 442.38 402.33 C 440.00 398.89 439.41 394.68 438.33 390.74 C 434.98 377.89 431.23 365.15 427.74 352.35 C 420.59 352.42 413.43 352.46 406.29 352.30 M 472.17 352.30 C 471.90 356.74 471.86 361.20 472.12 365.64 C 475.43 365.80 481.22 364.42 481.82 369.11 C 482.12 385.08 481.81 401.08 481.92 417.07 C 481.70 419.47 482.12 422.34 480.39 424.29 C 477.74 425.35 474.78 424.96 472.00 425.15 C 471.86 429.71 471.89 434.26 472.10 438.82 C 479.52 438.57 486.96 439.07 494.36 438.35 C 494.64 425.83 493.74 413.26 494.85 400.77 C 496.04 401.66 497.85 402.14 498.25 403.77 C 499.64 408.11 499.98 412.68 500.86 417.13 C 502.07 424.33 503.57 431.49 504.49 438.74 C 511.27 438.71 518.05 438.67 524.84 438.75 C 524.93 434.23 524.95 429.72 524.91 425.21 C 521.83 425.02 518.63 425.29 515.69 424.23 C 513.05 420.76 512.98 416.12 512.05 412.02 C 511.35 407.06 509.59 402.26 509.41 397.24 C 511.22 394.12 514.13 391.59 514.93 387.93 C 516.93 380.07 516.87 371.54 514.25 363.83 C 512.14 357.29 505.72 352.71 498.96 352.18 C 490.04 351.27 481.11 352.95 472.17 352.30 M 533.98 352.30 C 533.63 356.89 533.61 361.51 533.85 366.11 C 536.91 366.55 540.88 365.29 543.28 367.67 C 544.07 370.36 543.68 373.23 543.76 376.00 C 543.73 390.68 543.67 405.37 543.77 420.05 C 543.66 421.48 543.88 423.04 543.20 424.36 C 540.37 425.95 536.97 425.55 533.86 425.87 C 533.59 430.16 533.60 434.47 533.88 438.76 C 548.55 438.71 563.23 438.65 577.90 438.80 C 578.25 431.64 578.22 424.47 577.85 417.32 C 575.06 417.37 572.27 417.38 569.48 417.35 C 569.51 420.21 569.11 423.07 568.09 425.76 C 564.87 425.64 561.62 425.89 558.43 425.41 C 556.95 425.00 556.24 423.39 556.34 421.97 C 556.20 415.55 556.04 409.11 556.67 402.71 C 560.68 402.58 564.69 402.54 568.71 402.66 C 568.69 397.84 568.69 393.01 568.75 388.19 C 564.59 388.15 560.43 388.10 556.28 387.91 C 556.30 380.94 556.30 373.97 556.25 367.01 C 559.88 365.43 563.94 365.10 567.79 366.00 C 569.62 368.13 569.27 371.08 569.47 373.69 C 572.27 373.68 575.07 373.69 577.88 373.72 C 578.25 366.58 578.27 359.43 577.92 352.30 C 563.28 352.48 548.63 352.45 533.98 352.30 M 298.16 352.75 C 298.12 357.16 298.13 361.56 298.20 365.97 C 301.50 366.62 307.96 364.92 308.03 369.98 C 308.27 386.66 308.02 403.36 308.15 420.04 C 307.94 421.69 308.45 423.88 306.80 424.95 C 304.04 425.92 301.02 425.64 298.15 425.90 C 298.10 430.18 298.13 434.47 298.23 438.75 C 309.05 438.74 319.88 438.68 330.70 438.72 C 330.62 434.27 330.60 429.83 330.67 425.40 C 327.58 425.33 324.26 425.98 321.38 424.62 C 319.67 418.27 320.93 411.46 320.77 404.93 C 326.09 403.90 331.87 402.89 335.86 398.88 C 340.68 394.69 342.64 388.22 343.08 382.05 C 343.46 374.95 342.71 367.39 338.64 361.34 C 335.12 355.74 328.57 352.50 322.01 352.57 C 314.06 352.55 306.10 352.44 298.16 352.75 M 256.03 455.77 C 257.20 462.48 257.14 469.37 256.02 476.09 C 258.36 476.16 260.71 476.21 263.06 476.25 C 263.14 473.27 263.20 470.29 263.29 467.31 C 265.07 467.32 266.86 467.33 268.65 467.33 C 268.70 470.30 268.76 473.27 268.87 476.25 C 271.23 476.24 273.60 476.21 275.97 476.16 C 274.49 469.47 274.62 462.53 275.96 455.83 C 273.59 455.76 271.23 455.72 268.86 455.73 C 268.78 458.53 268.74 461.35 268.71 464.16 C 266.86 464.20 265.01 464.23 263.16 464.25 C 263.11 461.41 263.06 458.58 262.97 455.74 C 260.65 455.72 258.34 455.73 256.03 455.77 M 336.31 455.80 C 336.20 457.54 336.10 459.29 335.99 461.04 C 332.10 461.14 328.20 461.25 324.31 461.33 C 324.39 466.23 324.38 471.14 324.30 476.05 C 330.17 476.38 336.05 476.21 341.92 476.10 C 341.93 469.34 341.86 462.58 341.82 455.83 C 339.98 455.80 338.14 455.79 336.31 455.80 M 380.96 455.86 C 381.87 462.31 383.10 469.31 380.23 475.45 C 382.74 476.07 385.31 476.38 387.90 476.33 C 388.00 473.46 388.09 470.59 388.17 467.72 C 391.02 467.62 393.87 467.57 396.73 467.58 C 396.74 466.51 396.76 465.44 396.78 464.38 C 393.86 464.35 390.95 464.28 388.04 464.17 C 388.10 462.33 388.16 460.49 388.24 458.66 C 392.44 458.37 395.67 461.86 399.91 461.39 C 399.91 459.50 399.92 457.63 399.93 455.75 C 393.61 455.57 387.28 455.49 380.96 455.86 M 482.05 455.83 C 481.80 462.62 481.88 469.41 482.05 476.21 C 483.99 476.17 485.93 476.14 487.88 476.10 C 487.97 473.38 487.98 470.65 488.32 467.96 C 488.77 467.83 489.68 467.58 490.14 467.45 C 492.09 469.75 491.05 473.30 491.38 476.13 C 493.54 476.16 495.70 476.16 497.87 476.15 C 497.56 474.12 497.10 472.09 497.12 470.03 C 497.41 467.89 498.96 466.15 499.32 464.02 C 499.57 461.28 499.34 458.53 499.21 455.80 C 493.49 455.56 487.76 455.55 482.05 455.83 M 526.31 455.94 C 526.21 462.65 526.30 469.36 526.22 476.08 C 532.08 476.36 537.94 476.30 543.80 476.09 C 543.79 471.14 543.73 466.20 543.77 461.25 C 539.90 461.33 536.03 461.32 532.17 461.18 C 532.02 459.39 531.88 457.60 531.75 455.82 C 529.93 455.84 528.12 455.88 526.31 455.94 M 573.85 455.76 C 573.75 458.30 573.70 460.85 573.55 463.39 C 572.48 464.24 571.41 465.08 570.40 466.00 C 571.42 466.86 572.48 467.69 573.52 468.55 C 573.70 471.10 573.80 473.65 573.92 476.21 C 575.68 476.21 577.45 476.21 579.22 476.21 C 579.31 473.28 579.37 470.36 579.37 467.44 C 581.51 467.35 583.65 467.24 585.79 467.11 C 585.71 466.47 585.54 465.18 585.46 464.54 C 583.43 464.37 581.40 464.20 579.38 464.00 C 579.33 461.26 579.29 458.53 579.21 455.81 C 577.41 455.77 575.63 455.76 573.85 455.76 M 280.89 461.16 C 280.89 461.91 280.87 463.41 280.86 464.16 C 284.82 464.37 288.78 464.43 292.75 464.37 C 292.65 465.41 292.56 466.47 292.47 467.52 C 288.56 467.59 284.64 467.61 280.73 467.75 C 280.68 470.56 280.66 473.38 280.70 476.20 C 286.50 476.22 292.31 476.21 298.11 476.17 C 298.12 471.20 297.99 466.23 297.86 461.27 C 292.20 461.19 286.55 461.19 280.89 461.16 M 302.61 461.65 C 302.56 466.51 302.52 471.37 302.73 476.23 C 304.72 476.19 306.71 476.15 308.70 476.10 C 308.65 472.15 308.72 468.20 309.00 464.27 C 310.69 464.26 312.38 464.26 314.07 464.25 C 314.36 468.16 314.42 472.09 314.33 476.02 C 316.17 476.06 318.01 476.08 319.86 476.10 C 319.99 471.13 319.97 466.15 319.87 461.18 C 314.12 461.20 308.34 460.90 302.61 461.65 M 347.08 461.29 C 347.00 464.15 346.94 467.02 346.95 469.89 C 350.89 469.98 354.84 470.09 358.78 470.18 C 358.77 470.86 358.75 472.23 358.74 472.92 C 354.87 473.15 351.00 473.22 347.12 473.19 C 347.12 473.88 347.12 475.28 347.12 475.97 C 352.79 476.31 358.48 476.37 364.17 476.19 C 364.34 473.41 364.48 470.64 364.67 467.88 C 360.56 467.52 356.43 467.50 352.31 467.63 C 352.30 466.52 352.30 465.41 352.30 464.30 C 356.29 463.99 361.05 465.44 364.50 463.10 C 364.32 462.70 363.95 461.88 363.77 461.47 C 358.23 460.84 352.64 461.33 347.08 461.29 M 404.41 461.41 C 404.38 466.32 404.36 471.23 404.30 476.14 C 406.42 476.15 408.54 476.14 410.66 476.10 C 410.57 472.14 410.62 468.18 410.94 464.23 C 412.52 464.26 414.10 464.29 415.69 464.33 C 415.99 465.37 416.30 466.42 416.61 467.48 C 418.32 467.56 420.03 467.65 421.74 467.76 C 421.77 465.59 421.79 463.44 421.81 461.28 C 416.01 461.19 410.20 461.07 404.41 461.41 M 426.30 461.29 C 426.32 466.22 426.30 471.14 426.25 476.06 C 432.08 476.40 437.92 476.41 443.75 476.00 C 443.76 475.31 443.77 473.92 443.77 473.23 C 440.09 473.18 436.41 473.14 432.74 473.08 C 432.73 472.31 432.71 470.77 432.71 470.00 C 436.42 470.04 440.14 470.00 443.86 469.93 C 443.79 467.05 443.75 464.17 443.71 461.30 C 437.90 461.15 432.10 461.22 426.30 461.29 M 448.18 461.22 C 448.08 466.20 448.09 471.18 448.09 476.17 C 453.61 476.19 459.21 476.79 464.68 475.85 C 465.05 475.40 465.80 474.48 466.17 474.02 C 462.52 472.61 458.52 473.22 454.71 473.09 C 454.71 472.33 454.72 470.80 454.72 470.04 C 458.39 470.05 462.06 469.98 465.74 469.85 C 465.65 467.02 465.59 464.20 465.55 461.38 C 459.76 461.06 453.97 461.20 448.18 461.22 M 504.29 461.28 C 504.39 466.19 504.36 471.10 504.29 476.02 C 510.14 476.41 516.00 476.31 521.85 476.14 C 521.91 471.17 521.88 466.21 521.75 461.25 C 515.93 461.16 510.11 461.27 504.29 461.28 M 548.22 461.29 C 548.07 466.24 548.05 471.19 548.16 476.14 C 554.00 476.33 559.86 476.37 565.70 475.93 C 565.60 471.05 565.60 466.17 565.70 461.30 C 559.87 461.22 554.04 461.14 548.22 461.29 Z" />
<path fill="#7cb9e5" opacity="1.00" d=" M 269.46 363.42 C 270.81 363.14 272.21 363.14 273.57 363.40 C 275.53 364.50 275.61 366.98 275.68 368.97 C 275.69 387.95 275.59 406.94 275.71 425.93 C 273.71 426.58 271.43 428.20 269.36 426.87 C 267.31 425.77 267.72 422.99 267.55 421.04 C 267.63 403.68 267.59 386.31 267.56 368.94 C 267.69 367.04 267.50 364.48 269.46 363.42 Z" />
<path fill="#7cb9e5" opacity="1.00" d=" M 494.38 364.96 C 497.04 365.37 500.44 365.33 501.81 368.16 C 504.75 373.42 504.15 380.01 502.51 385.60 C 501.62 389.36 497.44 389.97 494.33 390.91 C 494.42 382.26 494.31 373.61 494.38 364.96 Z" />
<path fill="#7cb9e5" opacity="1.00" d=" M 320.82 365.50 C 323.91 366.00 328.07 366.45 328.92 370.15 C 330.47 376.12 330.79 382.75 328.64 388.62 C 327.60 391.87 323.55 391.43 320.88 392.15 C 320.44 383.27 320.50 374.37 320.82 365.50 Z" />
<path fill="#7cb9e5" opacity="1.00" d=" M 488.15 458.79 C 490.00 458.83 491.86 458.89 493.73 458.95 C 493.73 460.66 493.73 462.37 493.75 464.09 C 491.87 464.15 490.00 464.21 488.13 464.27 C 488.13 462.44 488.13 460.61 488.15 458.79 Z" />
<path fill="#7cb9e5" opacity="1.00" d=" M 330.88 464.25 C 332.62 464.26 334.35 464.26 336.10 464.26 C 336.22 467.21 336.25 470.17 336.22 473.13 C 334.38 473.10 332.54 473.07 330.71 473.05 C 330.68 470.11 330.72 467.18 330.88 464.25 Z" />
<path fill="#7cb9e5" opacity="1.00" d=" M 432.23 464.34 C 434.10 464.32 435.98 464.30 437.87 464.29 C 437.83 465.43 437.79 466.58 437.76 467.74 C 436.01 467.64 434.27 467.55 432.53 467.47 C 432.43 466.42 432.33 465.38 432.23 464.34 Z" />
<path fill="#7cb9e5" opacity="1.00" d=" M 454.23 464.37 C 456.11 464.33 457.98 464.29 459.87 464.25 C 459.83 465.41 459.79 466.58 459.75 467.75 C 458.01 467.64 456.27 467.54 454.54 467.46 C 454.43 466.42 454.33 465.39 454.23 464.37 Z" />
<path fill="#7cb9e5" opacity="1.00" d=" M 510.85 464.25 C 512.56 464.27 514.29 464.28 516.02 464.29 C 516.19 467.20 516.25 470.13 516.21 473.05 C 514.39 473.07 512.57 473.09 510.75 473.11 C 510.69 470.15 510.70 467.20 510.85 464.25 Z" />
<path fill="#7cb9e5" opacity="1.00" d=" M 532.02 464.26 C 533.74 464.26 535.46 464.25 537.18 464.24 C 537.35 467.20 537.38 470.16 537.30 473.12 C 535.52 473.06 533.75 473.00 531.98 472.94 C 531.91 470.04 531.92 467.15 532.02 464.26 Z" />
<path fill="#7cb9e5" opacity="1.00" d=" M 554.33 464.31 C 556.18 464.29 558.03 464.27 559.90 464.25 C 559.96 467.20 559.96 470.16 559.94 473.12 C 558.06 473.03 556.18 472.93 554.31 472.84 C 554.33 469.99 554.33 467.15 554.33 464.31 Z" />
<path fill="#7cb9e5" opacity="1.00" d=" M 287.11 470.07 C 288.81 470.02 290.51 469.97 292.21 469.93 C 292.22 470.73 292.24 472.32 292.25 473.12 C 290.51 473.10 288.78 473.08 287.05 473.07 C 287.07 472.32 287.10 470.82 287.11 470.07 Z" />
</g>
<g id="#020202ff">
<path fill="#020202" opacity="1.00" d=" M 367.95 198.85 C 375.63 193.91 384.64 189.76 394.00 190.97 C 400.38 191.95 407.18 189.99 413.23 192.81 C 416.34 194.11 419.48 195.75 422.98 195.42 C 428.49 195.90 433.61 193.55 438.96 192.76 C 445.21 191.95 451.51 192.99 457.64 194.20 C 461.32 194.98 465.07 195.87 468.34 197.81 C 474.00 201.60 477.45 207.67 480.37 213.66 C 483.82 220.25 485.35 227.67 486.10 235.02 C 485.62 240.05 483.90 245.01 481.35 249.37 C 476.46 255.20 470.22 260.07 463.16 263.00 C 457.35 265.18 451.08 265.58 444.95 265.97 C 442.19 265.91 440.27 268.01 438.32 269.63 C 439.41 271.93 441.06 274.30 440.48 276.99 C 434.89 279.95 428.46 280.74 422.38 282.20 C 418.03 283.22 413.98 285.39 409.46 285.71 C 403.49 286.26 397.73 288.13 391.74 288.43 C 388.47 288.62 385.18 288.48 381.95 289.09 C 383.33 292.03 387.27 291.80 390.00 292.44 C 398.61 292.90 407.42 291.67 415.45 288.42 C 420.71 286.35 426.32 285.45 431.68 283.71 C 438.24 281.59 445.21 281.27 452.05 281.35 C 457.12 281.33 461.94 283.27 466.39 285.54 C 469.02 286.81 472.47 287.85 473.11 291.17 C 474.18 293.26 473.36 296.22 470.92 296.83 C 467.05 297.97 462.98 298.63 458.95 298.41 C 454.10 298.21 449.92 294.85 444.99 295.29 C 436.82 295.53 429.52 299.64 422.59 303.57 C 415.73 306.23 408.35 308.05 400.94 307.46 C 397.98 307.23 395.04 307.79 392.16 308.42 C 387.29 309.24 382.63 306.81 378.63 304.31 C 375.35 302.00 372.75 296.88 368.02 298.80 C 363.16 300.84 357.78 302.02 353.67 305.48 C 346.28 300.95 346.80 288.50 353.52 283.60 C 361.23 279.84 368.89 290.34 376.37 285.40 C 376.82 282.71 376.81 279.93 376.69 277.21 C 375.63 273.86 373.55 270.94 372.28 267.67 C 368.83 266.62 365.38 264.87 361.67 265.58 C 359.13 266.11 357.56 263.56 355.83 262.18 C 347.06 253.73 339.96 241.80 341.52 229.20 C 342.44 225.11 344.92 221.60 347.08 218.09 C 351.15 211.96 355.83 206.21 361.65 201.66 C 363.70 200.62 365.99 200.08 367.95 198.85 M 386.48 198.68 C 380.45 200.25 374.78 203.10 369.60 206.52 C 363.84 212.10 356.19 216.40 352.99 224.12 C 350.53 232.97 350.50 243.26 356.06 250.99 C 360.12 256.39 367.13 257.43 373.07 259.63 C 381.90 262.89 390.41 257.34 398.93 255.69 C 409.35 254.84 419.80 255.60 430.09 257.31 C 440.01 259.24 450.54 259.26 460.20 256.02 C 467.43 252.97 474.36 248.08 478.28 241.15 C 482.63 233.04 480.40 223.36 476.48 215.56 C 474.00 210.40 470.66 204.93 464.91 203.03 C 457.91 200.64 450.39 199.98 443.02 200.16 C 437.85 200.14 433.14 202.92 427.96 202.79 C 425.10 202.72 422.17 203.05 419.38 202.37 C 415.39 200.78 411.50 198.31 407.04 198.55 C 400.19 198.68 393.31 197.90 386.48 198.68 M 400.45 263.62 C 392.86 265.82 385.29 268.69 377.28 268.70 C 378.63 271.22 379.80 273.82 380.89 276.47 C 384.36 275.10 388.06 274.62 391.76 274.41 C 397.19 273.27 402.69 272.36 408.04 270.82 C 413.93 269.21 420.05 269.42 426.10 269.30 C 428.67 269.31 430.91 267.46 431.97 265.21 C 421.62 263.22 410.96 262.80 400.45 263.62 Z" />
<path fill="#020202" opacity="1.00" d=" M 430.40 204.22 C 437.67 201.92 445.41 204.85 451.86 208.24 C 458.18 211.03 461.60 217.55 464.04 223.66 C 467.30 231.50 464.77 241.90 457.09 246.15 C 451.50 249.10 445.38 251.80 438.94 251.63 C 426.54 250.04 414.77 242.78 401.96 244.97 C 394.40 245.62 387.51 249.21 380.01 250.14 C 376.16 250.55 372.44 248.92 369.66 246.34 C 366.69 243.56 363.11 241.03 361.70 237.05 C 358.72 230.35 360.91 222.13 366.26 217.26 C 370.29 213.63 374.85 210.60 378.62 206.66 C 387.62 205.03 396.24 209.91 404.97 211.49 C 412.18 212.78 418.09 207.91 424.11 204.88 C 426.20 204.59 428.38 204.96 430.40 204.22 M 439.72 213.42 C 445.78 219.71 445.41 229.49 441.97 236.94 C 439.88 240.31 435.64 240.79 432.69 243.08 C 437.40 244.07 442.43 243.96 446.89 241.98 C 451.49 240.02 456.82 237.97 459.00 233.05 C 461.14 227.56 458.79 221.22 454.62 217.35 C 450.37 214.16 444.99 212.82 439.72 213.42 M 385.91 214.39 C 389.19 221.88 394.33 229.38 392.46 238.01 C 395.96 237.58 399.50 237.52 402.99 236.94 C 407.52 236.20 412.02 237.49 416.46 238.27 C 416.19 231.50 415.76 224.59 417.87 218.04 C 415.24 218.51 412.71 219.62 410.01 219.51 C 401.65 219.60 394.19 214.70 385.91 214.39 Z" />
<path fill="#020202" opacity="1.00" d=" M 425.31 305.13 C 432.10 304.22 437.69 299.28 444.64 299.18 C 445.07 301.18 446.93 303.41 445.48 305.35 C 430.79 311.89 415.19 317.12 398.96 317.47 C 392.35 317.46 385.53 319.19 379.11 316.91 C 376.19 315.72 373.21 314.36 370.96 312.11 C 369.88 310.55 368.53 307.69 370.94 306.63 C 374.43 307.86 377.34 310.46 381.02 311.21 C 385.75 311.83 390.48 311.01 395.17 310.48 C 405.45 310.41 415.48 307.85 425.31 305.13 Z" />
<path fill="#020202" opacity="1.00" d=" M 440.08 314.11 C 444.90 311.01 450.27 308.55 455.98 307.70 C 460.60 307.11 464.84 309.90 468.10 312.90 C 473.49 317.53 474.41 326.46 470.07 332.08 C 467.02 336.54 461.43 337.90 456.64 339.65 C 447.80 342.67 438.00 337.92 433.16 330.32 C 424.03 333.54 414.54 335.59 405.03 337.26 C 393.76 339.29 381.36 339.50 371.06 333.83 C 367.73 331.95 363.83 329.38 363.83 325.09 C 364.11 324.72 364.67 323.96 364.96 323.58 C 366.99 324.66 368.87 326.02 370.89 327.16 C 378.93 331.99 388.82 332.05 397.85 330.98 C 408.80 329.42 419.68 327.05 430.04 323.11 C 434.69 321.81 436.83 317.20 440.08 314.11 M 445.26 320.24 C 442.98 323.36 440.04 325.93 437.91 329.15 C 440.92 331.20 444.23 333.11 447.93 333.49 C 452.61 334.05 456.94 331.78 461.07 329.93 C 465.14 328.12 468.34 324.09 467.70 319.45 C 465.82 317.98 464.03 316.19 461.70 315.50 C 455.83 314.52 450.04 317.10 445.26 320.24 Z" />
<path fill="#020202" opacity="1.00" d=" M 365.66 314.64 C 367.30 313.47 368.45 315.65 369.57 316.49 C 373.45 320.69 379.64 321.14 385.00 321.34 C 395.05 321.35 405.31 321.30 414.96 318.19 C 418.86 317.33 422.48 314.94 426.59 315.31 C 428.33 316.83 428.62 319.19 429.01 321.34 C 422.88 324.62 415.97 325.73 409.31 327.39 C 402.98 328.92 396.43 328.12 390.00 328.43 C 383.46 328.73 376.83 327.72 370.95 324.77 C 367.96 322.36 365.08 318.69 365.66 314.64 Z" />
</g>
<g id="#fbfbfaff">
<path fill="#fbfbfa" opacity="1.00" d=" M 386.48 198.68 C 393.31 197.90 400.19 198.68 407.04 198.55 C 411.50 198.31 415.39 200.78 419.38 202.37 C 422.17 203.05 425.10 202.72 427.96 202.79 C 433.14 202.92 437.85 200.14 443.02 200.16 C 450.39 199.98 457.91 200.64 464.91 203.03 C 470.66 204.93 474.00 210.40 476.48 215.56 C 480.40 223.36 482.63 233.04 478.28 241.15 C 474.36 248.08 467.43 252.97 460.20 256.02 C 450.54 259.26 440.01 259.24 430.09 257.31 C 419.80 255.60 409.35 254.84 398.93 255.69 C 390.41 257.34 381.90 262.89 373.07 259.63 C 367.13 257.43 360.12 256.39 356.06 250.99 C 350.50 243.26 350.53 232.97 352.99 224.12 C 356.19 216.40 363.84 212.10 369.60 206.52 C 374.78 203.10 380.45 200.25 386.48 198.68 M 430.40 204.22 C 428.38 204.96 426.20 204.59 424.11 204.88 C 418.09 207.91 412.18 212.78 404.97 211.49 C 396.24 209.91 387.62 205.03 378.62 206.66 C 374.85 210.60 370.29 213.63 366.26 217.26 C 360.91 222.13 358.72 230.35 361.70 237.05 C 363.11 241.03 366.69 243.56 369.66 246.34 C 372.44 248.92 376.16 250.55 380.01 250.14 C 387.51 249.21 394.40 245.62 401.96 244.97 C 414.77 242.78 426.54 250.04 438.94 251.63 C 445.38 251.80 451.50 249.10 457.09 246.15 C 464.77 241.90 467.30 231.50 464.04 223.66 C 461.60 217.55 458.18 211.03 451.86 208.24 C 445.41 204.85 437.67 201.92 430.40 204.22 Z" />
<path fill="#fbfbfa" opacity="1.00" d=" M 439.72 213.42 C 444.99 212.82 450.37 214.16 454.62 217.35 C 458.79 221.22 461.14 227.56 459.00 233.05 C 456.82 237.97 451.49 240.02 446.89 241.98 C 442.43 243.96 437.40 244.07 432.69 243.08 C 435.64 240.79 439.88 240.31 441.97 236.94 C 445.41 229.49 445.78 219.71 439.72 213.42 Z" />
<path fill="#fbfbfa" opacity="1.00" d=" M 385.91 214.39 C 394.19 214.70 401.65 219.60 410.01 219.51 C 412.71 219.62 415.24 218.51 417.87 218.04 C 415.76 224.59 416.19 231.50 416.46 238.27 C 412.02 237.49 407.52 236.20 402.99 236.94 C 399.50 237.52 395.96 237.58 392.46 238.01 C 394.33 229.38 389.19 221.88 385.91 214.39 Z" />
<path fill="#fbfbfa" opacity="1.00" d=" M 400.45 263.62 C 410.96 262.80 421.62 263.22 431.97 265.21 C 430.91 267.46 428.67 269.31 426.10 269.30 C 420.05 269.42 413.93 269.21 408.04 270.82 C 402.69 272.36 397.19 273.27 391.76 274.41 C 388.06 274.62 384.36 275.10 380.89 276.47 C 379.80 273.82 378.63 271.22 377.28 268.70 C 385.29 268.69 392.86 265.82 400.45 263.62 Z" />
<path fill="#fbfbfa" opacity="1.00" d=" M 400.94 307.46 C 408.35 308.05 415.73 306.23 422.59 303.57 C 423.27 303.96 424.63 304.74 425.31 305.13 C 415.48 307.85 405.45 310.41 395.17 310.48 C 393.01 310.48 390.88 310.16 388.75 309.86 C 389.87 309.34 390.98 308.80 392.16 308.42 C 395.04 307.79 397.98 307.23 400.94 307.46 Z" />
<path fill="#fbfbfa" opacity="1.00" d=" M 445.26 320.24 C 450.04 317.10 455.83 314.52 461.70 315.50 C 464.03 316.19 465.82 317.98 467.70 319.45 C 468.34 324.09 465.14 328.12 461.07 329.93 C 456.94 331.78 452.61 334.05 447.93 333.49 C 444.23 333.11 440.92 331.20 437.91 329.15 C 440.04 325.93 442.98 323.36 445.26 320.24 Z" />
<path fill="#fbfbfa" opacity="1.00" d=" M 409.31 327.39 C 415.97 325.73 422.88 324.62 429.01 321.34 C 429.26 321.78 429.78 322.67 430.04 323.11 C 419.68 327.05 408.80 329.42 397.85 330.98 C 388.82 332.05 378.93 331.99 370.89 327.16 C 370.66 326.46 370.20 325.06 369.97 324.35 L 370.95 324.77 C 376.83 327.72 383.46 328.73 390.00 328.43 C 396.43 328.12 402.98 328.92 409.31 327.39 Z" />
<path fill="#fbfbfa" opacity="1.00" d=" M 266.36 351.38 C 272.02 349.91 278.92 350.38 283.19 354.81 C 287.19 359.11 288.74 365.18 288.72 370.94 C 288.68 386.98 288.65 403.01 288.72 419.04 C 288.69 424.16 288.09 429.67 284.85 433.85 C 279.07 442.24 264.90 442.16 258.82 434.17 C 254.95 429.78 254.27 423.65 254.32 418.04 C 254.37 404.69 254.35 391.35 254.34 378.00 C 254.38 372.59 253.80 366.97 255.80 361.81 C 257.56 357.06 261.32 352.69 266.36 351.38 M 269.46 363.42 C 267.50 364.48 267.69 367.04 267.56 368.94 C 267.59 386.31 267.63 403.68 267.55 421.04 C 267.72 422.99 267.31 425.77 269.36 426.87 C 271.43 428.20 273.71 426.58 275.71 425.93 C 275.59 406.94 275.69 387.95 275.68 368.97 C 275.61 366.98 275.53 364.50 273.57 363.40 C 272.21 363.14 270.81 363.14 269.46 363.42 Z" />
<path fill="#fbfbfa" opacity="1.00" d=" M 352.15 352.31 C 366.74 352.49 381.34 352.45 395.93 352.32 C 396.49 359.44 396.39 366.60 395.95 373.73 C 393.13 373.70 390.31 373.68 387.50 373.68 C 387.35 371.30 387.57 368.77 386.43 366.59 C 382.63 364.68 378.06 365.44 374.29 367.05 C 374.40 373.98 374.39 380.91 374.31 387.83 C 378.47 388.07 382.64 388.18 386.81 388.22 C 386.91 392.89 386.90 397.57 386.83 402.24 C 382.67 402.46 378.50 402.49 374.33 402.36 C 374.42 409.44 374.30 416.52 374.40 423.60 C 375.06 424.27 375.73 424.94 376.40 425.61 C 380.07 425.65 383.75 425.62 387.42 425.49 C 387.51 422.90 387.62 420.32 387.71 417.74 C 390.42 417.51 393.13 417.36 395.85 417.20 C 396.47 424.36 396.37 431.57 395.97 438.74 C 381.35 438.71 366.73 438.65 352.12 438.80 C 351.92 434.48 351.88 430.15 352.01 425.83 C 355.39 425.79 358.88 425.77 361.96 424.19 C 361.77 406.12 361.98 388.04 361.87 369.98 C 361.94 364.86 355.34 366.58 352.06 366.05 C 351.84 361.47 351.88 356.88 352.15 352.31 Z" />
<path fill="#fbfbfa" opacity="1.00" d=" M 406.29 352.30 C 413.43 352.46 420.59 352.42 427.74 352.35 C 431.23 365.15 434.98 377.89 438.33 390.74 C 439.41 394.68 440.00 398.89 442.38 402.33 C 443.02 385.66 442.09 368.97 442.86 352.31 C 449.53 352.44 456.20 352.48 462.87 352.31 C 463.31 356.86 463.31 361.44 463.05 366.01 C 460.12 366.56 455.88 365.21 454.08 368.25 C 453.41 371.45 453.71 374.75 453.68 378.01 C 453.75 398.24 453.67 418.47 453.70 438.70 C 449.84 438.71 445.98 438.73 442.13 438.73 C 437.50 422.44 433.30 406.03 428.28 389.85 C 428.23 400.57 428.03 411.29 428.14 422.01 C 427.70 424.51 430.56 425.23 432.16 426.37 C 432.54 430.49 432.51 434.64 432.17 438.76 C 423.53 438.68 414.88 438.73 406.24 438.74 C 406.27 434.29 406.27 429.84 406.27 425.39 C 409.25 425.23 412.68 426.15 415.32 424.40 C 416.75 421.93 416.04 418.75 416.29 415.99 C 416.09 400.05 416.70 384.08 416.02 368.17 C 413.50 365.51 409.53 366.72 406.30 366.60 C 406.30 361.83 406.32 357.06 406.29 352.30 Z" />
<path fill="#fbfbfa" opacity="1.00" d=" M 472.17 352.30 C 481.11 352.95 490.04 351.27 498.96 352.18 C 505.72 352.71 512.14 357.29 514.25 363.83 C 516.87 371.54 516.93 380.07 514.93 387.93 C 514.13 391.59 511.22 394.12 509.41 397.24 C 509.59 402.26 511.35 407.06 512.05 412.02 C 512.98 416.12 513.05 420.76 515.69 424.23 C 518.63 425.29 521.83 425.02 524.91 425.21 C 524.95 429.72 524.93 434.23 524.84 438.75 C 518.05 438.67 511.27 438.71 504.49 438.74 C 503.57 431.49 502.07 424.33 500.86 417.13 C 499.98 412.68 499.64 408.11 498.25 403.77 C 497.85 402.14 496.04 401.66 494.85 400.77 C 493.74 413.26 494.64 425.83 494.36 438.35 C 486.96 439.07 479.52 438.57 472.10 438.82 C 471.89 434.26 471.86 429.71 472.00 425.15 C 474.78 424.96 477.74 425.35 480.39 424.29 C 482.12 422.34 481.70 419.47 481.92 417.07 C 481.81 401.08 482.12 385.08 481.82 369.11 C 481.22 364.42 475.43 365.80 472.12 365.64 C 471.86 361.20 471.90 356.74 472.17 352.30 M 494.38 364.96 C 494.31 373.61 494.42 382.26 494.33 390.91 C 497.44 389.97 501.62 389.36 502.51 385.60 C 504.15 380.01 504.75 373.42 501.81 368.16 C 500.44 365.33 497.04 365.37 494.38 364.96 Z" />
<path fill="#fbfbfa" opacity="1.00" d=" M 533.98 352.30 C 548.63 352.45 563.28 352.48 577.92 352.30 C 578.27 359.43 578.25 366.58 577.88 373.72 C 575.07 373.69 572.27 373.68 569.47 373.69 C 569.27 371.08 569.62 368.13 567.79 366.00 C 563.94 365.10 559.88 365.43 556.25 367.01 C 556.30 373.97 556.30 380.94 556.28 387.91 C 560.43 388.10 564.59 388.15 568.75 388.19 C 568.69 393.01 568.69 397.84 568.71 402.66 C 564.69 402.54 560.68 402.58 556.67 402.71 C 556.04 409.11 556.20 415.55 556.34 421.97 C 556.24 423.39 556.95 425.00 558.43 425.41 C 561.62 425.89 564.87 425.64 568.09 425.76 C 569.11 423.07 569.51 420.21 569.48 417.35 C 572.27 417.38 575.06 417.37 577.85 417.32 C 578.22 424.47 578.25 431.64 577.90 438.80 C 563.23 438.65 548.55 438.71 533.88 438.76 C 533.60 434.47 533.59 430.16 533.86 425.87 C 536.97 425.55 540.37 425.95 543.20 424.36 C 543.88 423.04 543.66 421.48 543.77 420.05 C 543.67 405.37 543.73 390.68 543.76 376.00 C 543.68 373.23 544.07 370.36 543.28 367.67 C 540.88 365.29 536.91 366.55 533.85 366.11 C 533.61 361.51 533.63 356.89 533.98 352.30 Z" />
<path fill="#fbfbfa" opacity="1.00" d=" M 298.16 352.75 C 306.10 352.44 314.06 352.55 322.01 352.57 C 328.57 352.50 335.12 355.74 338.64 361.34 C 342.71 367.39 343.46 374.95 343.08 382.05 C 342.64 388.22 340.68 394.69 335.86 398.88 C 331.87 402.89 326.09 403.90 320.77 404.93 C 320.93 411.46 319.67 418.27 321.38 424.62 C 324.26 425.98 327.58 425.33 330.67 425.40 C 330.60 429.83 330.62 434.27 330.70 438.72 C 319.88 438.68 309.05 438.74 298.23 438.75 C 298.13 434.47 298.10 430.18 298.15 425.90 C 301.02 425.64 304.04 425.92 306.80 424.95 C 308.45 423.88 307.94 421.69 308.15 420.04 C 308.02 403.36 308.27 386.66 308.03 369.98 C 307.96 364.92 301.50 366.62 298.20 365.97 C 298.13 361.56 298.12 357.16 298.16 352.75 M 320.82 365.50 C 320.50 374.37 320.44 383.27 320.88 392.15 C 323.55 391.43 327.60 391.87 328.64 388.62 C 330.79 382.75 330.47 376.12 328.92 370.15 C 328.07 366.45 323.91 366.00 320.82 365.50 Z" />
<path fill="#fbfbfa" opacity="1.00" d=" M 256.03 455.77 C 258.34 455.73 260.65 455.72 262.97 455.74 C 263.06 458.58 263.11 461.41 263.16 464.25 C 265.01 464.23 266.86 464.20 268.71 464.16 C 268.74 461.35 268.78 458.53 268.86 455.73 C 271.23 455.72 273.59 455.76 275.96 455.83 C 274.62 462.53 274.49 469.47 275.97 476.16 C 273.60 476.21 271.23 476.24 268.87 476.25 C 268.76 473.27 268.70 470.30 268.65 467.33 C 266.86 467.33 265.07 467.32 263.29 467.31 C 263.20 470.29 263.14 473.27 263.06 476.25 C 260.71 476.21 258.36 476.16 256.02 476.09 C 257.14 469.37 257.20 462.48 256.03 455.77 Z" />
<path fill="#fbfbfa" opacity="1.00" d=" M 336.31 455.80 C 338.14 455.79 339.98 455.80 341.82 455.83 C 341.86 462.58 341.93 469.34 341.92 476.10 C 336.05 476.21 330.17 476.38 324.30 476.05 C 324.38 471.14 324.39 466.23 324.31 461.33 C 328.20 461.25 332.10 461.14 335.99 461.04 C 336.10 459.29 336.20 457.54 336.31 455.80 M 330.88 464.25 C 330.72 467.18 330.68 470.11 330.71 473.05 C 332.54 473.07 334.38 473.10 336.22 473.13 C 336.25 470.17 336.22 467.21 336.10 464.26 C 334.35 464.26 332.62 464.26 330.88 464.25 Z" />
<path fill="#fbfbfa" opacity="1.00" d=" M 380.96 455.86 C 387.28 455.49 393.61 455.57 399.93 455.75 C 399.92 457.63 399.91 459.50 399.91 461.39 C 395.67 461.86 392.44 458.37 388.24 458.66 C 388.16 460.49 388.10 462.33 388.04 464.17 C 390.95 464.28 393.86 464.35 396.78 464.38 C 396.76 465.44 396.74 466.51 396.73 467.58 C 393.87 467.57 391.02 467.62 388.17 467.72 C 388.09 470.59 388.00 473.46 387.90 476.33 C 385.31 476.38 382.74 476.07 380.23 475.45 C 383.10 469.31 381.87 462.31 380.96 455.86 Z" />
<path fill="#fbfbfa" opacity="1.00" d=" M 482.05 455.83 C 487.76 455.55 493.49 455.56 499.21 455.80 C 499.34 458.53 499.57 461.28 499.32 464.02 C 498.96 466.15 497.41 467.89 497.12 470.03 C 497.10 472.09 497.56 474.12 497.87 476.15 C 495.70 476.16 493.54 476.16 491.38 476.13 C 491.05 473.30 492.09 469.75 490.14 467.45 C 489.68 467.58 488.77 467.83 488.32 467.96 C 487.98 470.65 487.97 473.38 487.88 476.10 C 485.93 476.14 483.99 476.17 482.05 476.21 C 481.88 469.41 481.80 462.62 482.05 455.83 M 488.15 458.79 C 488.13 460.61 488.13 462.44 488.13 464.27 C 490.00 464.21 491.87 464.15 493.75 464.09 C 493.73 462.37 493.73 460.66 493.73 458.95 C 491.86 458.89 490.00 458.83 488.15 458.79 Z" />
<path fill="#fbfbfa" opacity="1.00" d=" M 526.31 455.94 C 528.12 455.88 529.93 455.84 531.75 455.82 C 531.88 457.60 532.02 459.39 532.17 461.18 C 536.03 461.32 539.90 461.33 543.77 461.25 C 543.73 466.20 543.79 471.14 543.80 476.09 C 537.94 476.30 532.08 476.36 526.22 476.08 C 526.30 469.36 526.21 462.65 526.31 455.94 M 532.02 464.26 C 531.92 467.15 531.91 470.04 531.98 472.94 C 533.75 473.00 535.52 473.06 537.30 473.12 C 537.38 470.16 537.35 467.20 537.18 464.24 C 535.46 464.25 533.74 464.26 532.02 464.26 Z" />
<path fill="#fbfbfa" opacity="1.00" d=" M 573.85 455.76 C 575.63 455.76 577.41 455.77 579.21 455.81 C 579.29 458.53 579.33 461.26 579.38 464.00 C 581.40 464.20 583.43 464.37 585.46 464.54 C 585.54 465.18 585.71 466.47 585.79 467.11 C 583.65 467.24 581.51 467.35 579.37 467.44 C 579.37 470.36 579.31 473.28 579.22 476.21 C 577.45 476.21 575.68 476.21 573.92 476.21 C 573.80 473.65 573.70 471.10 573.52 468.55 C 572.48 467.69 571.42 466.86 570.40 466.00 C 571.41 465.08 572.48 464.24 573.55 463.39 C 573.70 460.85 573.75 458.30 573.85 455.76 Z" />
<path fill="#fbfbfa" opacity="1.00" d=" M 280.89 461.16 C 286.55 461.19 292.20 461.19 297.86 461.27 C 297.99 466.23 298.12 471.20 298.11 476.17 C 292.31 476.21 286.50 476.22 280.70 476.20 C 280.66 473.38 280.68 470.56 280.73 467.75 C 284.64 467.61 288.56 467.59 292.47 467.52 C 292.56 466.47 292.65 465.41 292.75 464.37 C 288.78 464.43 284.82 464.37 280.86 464.16 C 280.87 463.41 280.89 461.91 280.89 461.16 M 287.11 470.07 C 287.10 470.82 287.07 472.32 287.05 473.07 C 288.78 473.08 290.51 473.10 292.25 473.12 C 292.24 472.32 292.22 470.73 292.21 469.93 C 290.51 469.97 288.81 470.02 287.11 470.07 Z" />
<path fill="#fbfbfa" opacity="1.00" d=" M 302.61 461.65 C 308.34 460.90 314.12 461.20 319.87 461.18 C 319.97 466.15 319.99 471.13 319.86 476.10 C 318.01 476.08 316.17 476.06 314.33 476.02 C 314.42 472.09 314.36 468.16 314.07 464.25 C 312.38 464.26 310.69 464.26 309.00 464.27 C 308.72 468.20 308.65 472.15 308.70 476.10 C 306.71 476.15 304.72 476.19 302.73 476.23 C 302.52 471.37 302.56 466.51 302.61 461.65 Z" />
<path fill="#fbfbfa" opacity="1.00" d=" M 347.08 461.29 C 352.64 461.33 358.23 460.84 363.77 461.47 C 363.95 461.88 364.32 462.70 364.50 463.10 C 361.05 465.44 356.29 463.99 352.30 464.30 C 352.30 465.41 352.30 466.52 352.31 467.63 C 356.43 467.50 360.56 467.52 364.67 467.88 C 364.48 470.64 364.34 473.41 364.17 476.19 C 358.48 476.37 352.79 476.31 347.12 475.97 C 347.12 475.28 347.12 473.88 347.12 473.19 C 351.00 473.22 354.87 473.15 358.74 472.92 C 358.75 472.23 358.77 470.86 358.78 470.18 C 354.84 470.09 350.89 469.98 346.95 469.89 C 346.94 467.02 347.00 464.15 347.08 461.29 Z" />
<path fill="#fbfbfa" opacity="1.00" d=" M 404.41 461.41 C 410.20 461.07 416.01 461.19 421.81 461.28 C 421.79 463.44 421.77 465.59 421.74 467.76 C 420.03 467.65 418.32 467.56 416.61 467.48 C 416.30 466.42 415.99 465.37 415.69 464.33 C 414.10 464.29 412.52 464.26 410.94 464.23 C 410.62 468.18 410.57 472.14 410.66 476.10 C 408.54 476.14 406.42 476.15 404.30 476.14 C 404.36 471.23 404.38 466.32 404.41 461.41 Z" />
<path fill="#fbfbfa" opacity="1.00" d=" M 426.30 461.29 C 432.10 461.22 437.90 461.15 443.71 461.30 C 443.75 464.17 443.79 467.05 443.86 469.93 C 440.14 470.00 436.42 470.04 432.71 470.00 C 432.71 470.77 432.73 472.31 432.74 473.08 C 436.41 473.14 440.09 473.18 443.77 473.23 C 443.77 473.92 443.76 475.31 443.75 476.00 C 437.92 476.41 432.08 476.40 426.25 476.06 C 426.30 471.14 426.32 466.22 426.30 461.29 M 432.23 464.34 C 432.33 465.38 432.43 466.42 432.53 467.47 C 434.27 467.55 436.01 467.64 437.76 467.74 C 437.79 466.58 437.83 465.43 437.87 464.29 C 435.98 464.30 434.10 464.32 432.23 464.34 Z" />
<path fill="#fbfbfa" opacity="1.00" d=" M 448.18 461.22 C 453.97 461.20 459.76 461.06 465.55 461.38 C 465.59 464.20 465.65 467.02 465.74 469.85 C 462.06 469.98 458.39 470.05 454.72 470.04 C 454.72 470.80 454.71 472.33 454.71 473.09 C 458.52 473.22 462.52 472.61 466.17 474.02 C 465.80 474.48 465.05 475.40 464.68 475.85 C 459.21 476.79 453.61 476.19 448.09 476.17 C 448.09 471.18 448.08 466.20 448.18 461.22 M 454.23 464.37 C 454.33 465.39 454.43 466.42 454.54 467.46 C 456.27 467.54 458.01 467.64 459.75 467.75 C 459.79 466.58 459.83 465.41 459.87 464.25 C 457.98 464.29 456.11 464.33 454.23 464.37 Z" />
<path fill="#fbfbfa" opacity="1.00" d=" M 504.29 461.28 C 510.11 461.27 515.93 461.16 521.75 461.25 C 521.88 466.21 521.91 471.17 521.85 476.14 C 516.00 476.31 510.14 476.41 504.29 476.02 C 504.36 471.10 504.39 466.19 504.29 461.28 M 510.85 464.25 C 510.70 467.20 510.69 470.15 510.75 473.11 C 512.57 473.09 514.39 473.07 516.21 473.05 C 516.25 470.13 516.19 467.20 516.02 464.29 C 514.29 464.28 512.56 464.27 510.85 464.25 Z" />
<path fill="#fbfbfa" opacity="1.00" d=" M 548.22 461.29 C 554.04 461.14 559.87 461.22 565.70 461.30 C 565.60 466.17 565.60 471.05 565.70 475.93 C 559.86 476.37 554.00 476.33 548.16 476.14 C 548.05 471.19 548.07 466.24 548.22 461.29 M 554.33 464.31 C 554.33 467.15 554.33 469.99 554.31 472.84 C 556.18 472.93 558.06 473.03 559.94 473.12 C 559.96 470.16 559.96 467.20 559.90 464.25 C 558.03 464.27 556.18 464.29 554.33 464.31 Z" />
</g>
</svg>
