<?xml version="1.0" encoding="UTF-8" ?>
<!DOCTYPE svg PUBLIC "-//W3C//DTD SVG 1.1//EN" "http://www.w3.org/Graphics/SVG/1.1/DTD/svg11.dtd">
<svg width="300pt" height="300pt" viewBox="0 0 300 300" version="1.1" xmlns="http://www.w3.org/2000/svg">
<g id="#f0ebffff">
<path fill="#f0ebff" opacity="1.00" d=" M 0.00 0.00 L 300.00 0.00 L 300.00 300.00 L 0.00 300.00 L 0.00 0.00 M 192.41 113.68 C 185.52 115.21 179.40 119.65 175.76 125.68 C 169.40 135.85 168.47 148.57 170.56 160.16 C 172.29 168.44 176.29 176.81 183.55 181.60 C 194.69 189.27 211.73 186.91 219.80 175.85 C 226.91 166.63 228.40 154.40 227.30 143.12 C 226.38 134.63 223.16 126.10 216.94 120.07 C 210.49 113.99 200.98 111.72 192.41 113.68 M 241.73 127.49 C 240.29 134.02 241.10 141.89 246.59 146.39 C 253.56 151.80 262.59 152.98 270.49 156.47 C 273.05 157.73 275.89 159.11 277.31 161.75 C 278.36 165.03 278.19 169.01 275.97 171.80 C 273.24 174.87 268.88 175.46 265.00 175.63 C 257.78 175.98 250.79 172.47 245.97 167.24 C 243.44 169.66 241.01 172.17 238.59 174.69 C 247.61 185.74 263.92 188.94 276.88 183.58 C 282.75 181.14 287.19 175.45 287.91 169.11 C 288.30 163.47 288.51 157.09 284.34 152.67 C 276.68 144.47 264.64 144.06 255.29 138.80 C 249.86 136.04 250.50 127.30 255.92 124.90 C 263.71 121.56 273.21 124.06 278.98 130.12 C 281.16 127.83 283.37 125.57 285.61 123.34 C 285.61 123.00 285.62 122.30 285.63 121.96 C 278.60 115.25 268.64 111.67 258.96 113.43 C 251.24 114.48 243.80 119.74 241.73 127.49 M 18.23 114.20 C 11.96 115.36 9.90 124.24 14.84 128.18 C 19.21 132.49 27.25 129.03 27.58 123.03 C 28.55 117.90 23.31 112.77 18.23 114.20 M 44.33 114.48 C 38.32 116.58 37.63 125.79 43.07 128.96 C 47.98 132.34 55.30 127.87 54.82 122.04 C 55.28 116.69 49.27 112.49 44.33 114.48 M 71.43 114.61 C 65.24 116.77 65.01 126.61 70.92 129.23 C 75.17 131.73 81.03 128.69 81.96 123.96 C 83.82 118.05 77.16 111.90 71.43 114.61 M 104.67 114.21 C 104.84 137.75 104.76 161.30 104.72 184.85 C 108.08 184.89 111.43 184.89 114.79 184.92 C 114.85 175.66 114.91 166.40 114.76 157.15 C 119.93 156.66 125.11 156.97 130.29 156.88 C 134.94 166.16 139.33 175.58 143.96 184.89 C 147.91 184.88 151.86 184.90 155.81 184.86 C 151.17 175.24 146.40 165.67 141.85 156.00 C 148.42 154.47 154.03 149.51 155.83 142.95 C 157.59 136.21 157.39 128.41 153.25 122.55 C 149.47 116.99 142.63 114.30 136.08 114.24 C 125.61 114.10 115.14 114.20 104.67 114.21 M 16.35 142.33 C 10.76 144.96 10.71 154.00 16.24 156.70 C 21.08 159.62 27.63 155.45 27.63 149.99 C 28.24 144.27 21.49 139.35 16.35 142.33 M 43.31 142.57 C 38.03 145.30 38.06 153.87 43.36 156.57 C 48.08 159.68 54.91 155.58 54.82 150.04 C 55.58 144.17 48.42 139.09 43.31 142.57 M 71.23 142.21 C 66.05 144.40 64.96 152.12 69.36 155.64 C 73.54 159.88 81.42 156.75 82.06 150.98 C 83.55 145.08 76.73 139.30 71.23 142.21 M 16.51 169.76 C 11.23 172.27 10.44 180.44 15.43 183.67 C 20.28 187.63 28.07 183.10 27.66 177.04 C 27.94 171.44 21.56 167.21 16.51 169.76 M 44.36 169.51 C 38.71 171.51 37.53 180.07 42.46 183.52 C 47.24 187.72 55.44 183.16 54.82 176.98 C 55.23 171.71 49.25 167.48 44.36 169.51 M 71.42 169.62 C 65.68 171.83 64.82 180.81 70.21 183.91 C 74.47 186.88 80.89 184.15 81.92 179.13 C 83.85 173.21 77.22 166.95 71.42 169.62 Z" />
<path fill="#f0ebff" opacity="1.00" d=" M 114.80 124.30 C 120.84 124.06 126.90 124.26 132.95 124.17 C 136.20 124.14 139.77 124.25 142.43 126.39 C 146.62 129.33 147.20 135.25 145.92 139.83 C 144.68 144.51 139.62 147.06 135.04 146.84 C 128.29 146.79 121.53 146.95 114.78 146.72 C 114.88 139.25 114.86 131.77 114.80 124.30 Z" />
<path fill="#f0ebff" opacity="1.00" d=" M 192.40 124.67 C 198.72 122.44 206.56 123.76 211.02 129.01 C 215.98 134.74 217.13 142.67 217.17 149.99 C 217.03 157.00 215.83 164.61 211.02 170.03 C 204.61 177.79 190.84 177.18 185.16 168.85 C 179.91 161.35 179.70 151.68 180.53 142.90 C 181.50 135.57 184.89 127.34 192.40 124.67 Z" />
</g>
<g id="#232f4bff">
<path fill="#232f4b" opacity="1.00" d=" M 192.41 113.68 C 200.98 111.72 210.49 113.99 216.94 120.07 C 223.16 126.10 226.38 134.63 227.30 143.12 C 228.40 154.40 226.91 166.63 219.80 175.85 C 211.73 186.91 194.69 189.27 183.55 181.60 C 176.29 176.81 172.29 168.44 170.56 160.16 C 168.47 148.57 169.40 135.85 175.76 125.68 C 179.40 119.65 185.52 115.21 192.41 113.68 M 192.40 124.67 C 184.89 127.34 181.50 135.57 180.53 142.90 C 179.70 151.68 179.91 161.35 185.16 168.85 C 190.84 177.18 204.61 177.79 211.02 170.03 C 215.83 164.61 217.03 157.00 217.17 149.99 C 217.13 142.67 215.98 134.74 211.02 129.01 C 206.56 123.76 198.72 122.44 192.40 124.67 Z" />
<path fill="#232f4b" opacity="1.00" d=" M 241.73 127.49 C 243.80 119.74 251.24 114.48 258.96 113.43 C 268.64 111.67 278.60 115.25 285.63 121.96 C 285.62 122.30 285.61 123.00 285.61 123.34 C 283.37 125.57 281.16 127.83 278.98 130.12 C 273.21 124.06 263.71 121.56 255.92 124.90 C 250.50 127.30 249.86 136.04 255.29 138.80 C 264.64 144.06 276.68 144.47 284.34 152.67 C 288.51 157.09 288.30 163.47 287.91 169.11 C 287.19 175.45 282.75 181.14 276.88 183.58 C 263.92 188.94 247.61 185.74 238.59 174.69 C 241.01 172.17 243.44 169.66 245.97 167.24 C 250.79 172.47 257.78 175.98 265.00 175.63 C 268.88 175.46 273.24 174.87 275.97 171.80 C 278.19 169.01 278.36 165.03 277.31 161.75 C 275.89 159.11 273.05 157.73 270.49 156.47 C 262.59 152.98 253.56 151.80 246.59 146.39 C 241.10 141.89 240.29 134.02 241.73 127.49 Z" />
<path fill="#232f4b" opacity="1.00" d=" M 18.23 114.20 C 23.31 112.77 28.55 117.90 27.58 123.03 C 27.25 129.03 19.21 132.49 14.84 128.18 C 9.90 124.24 11.96 115.36 18.23 114.20 Z" />
<path fill="#232f4b" opacity="1.00" d=" M 44.33 114.48 C 49.27 112.49 55.28 116.69 54.82 122.04 C 55.30 127.87 47.98 132.34 43.07 128.96 C 37.63 125.79 38.32 116.58 44.33 114.48 Z" />
<path fill="#232f4b" opacity="1.00" d=" M 71.43 114.61 C 77.16 111.90 83.82 118.05 81.96 123.96 C 81.03 128.69 75.17 131.73 70.92 129.23 C 65.01 126.61 65.24 116.77 71.43 114.61 Z" />
<path fill="#232f4b" opacity="1.00" d=" M 104.67 114.21 C 115.14 114.20 125.61 114.10 136.08 114.24 C 142.63 114.30 149.47 116.99 153.25 122.55 C 157.39 128.41 157.59 136.21 155.83 142.95 C 154.03 149.51 148.42 154.47 141.85 156.00 C 146.40 165.67 151.17 175.24 155.81 184.86 C 151.86 184.90 147.91 184.88 143.96 184.89 C 139.33 175.58 134.94 166.16 130.29 156.88 C 125.11 156.97 119.93 156.66 114.76 157.15 C 114.91 166.40 114.85 175.66 114.79 184.92 C 111.43 184.89 108.08 184.89 104.72 184.85 C 104.76 161.30 104.84 137.75 104.67 114.21 M 114.80 124.30 C 114.86 131.77 114.88 139.25 114.78 146.72 C 121.53 146.95 128.29 146.79 135.04 146.84 C 139.62 147.06 144.68 144.51 145.92 139.83 C 147.20 135.25 146.62 129.33 142.43 126.39 C 139.77 124.25 136.20 124.14 132.95 124.17 C 126.90 124.26 120.84 124.06 114.80 124.30 Z" />
<path fill="#232f4b" opacity="1.00" d=" M 16.35 142.33 C 21.49 139.35 28.24 144.27 27.63 149.99 C 27.63 155.45 21.08 159.62 16.24 156.70 C 10.71 154.00 10.76 144.96 16.35 142.33 Z" />
<path fill="#232f4b" opacity="1.00" d=" M 43.31 142.57 C 48.42 139.09 55.58 144.17 54.82 150.04 C 54.91 155.58 48.08 159.68 43.36 156.57 C 38.06 153.87 38.03 145.30 43.31 142.57 Z" />
<path fill="#232f4b" opacity="1.00" d=" M 71.23 142.21 C 76.73 139.30 83.55 145.08 82.06 150.98 C 81.42 156.75 73.54 159.88 69.36 155.64 C 64.96 152.12 66.05 144.40 71.23 142.21 Z" />
<path fill="#232f4b" opacity="1.00" d=" M 16.51 169.76 C 21.56 167.21 27.94 171.44 27.66 177.04 C 28.07 183.10 20.28 187.63 15.43 183.67 C 10.44 180.44 11.23 172.27 16.51 169.76 Z" />
<path fill="#232f4b" opacity="1.00" d=" M 44.36 169.51 C 49.25 167.48 55.23 171.71 54.82 176.98 C 55.44 183.16 47.24 187.72 42.46 183.52 C 37.53 180.07 38.71 171.51 44.36 169.51 Z" />
<path fill="#232f4b" opacity="1.00" d=" M 71.42 169.62 C 77.22 166.95 83.85 173.21 81.92 179.13 C 80.89 184.15 74.47 186.88 70.21 183.91 C 64.82 180.81 65.68 171.83 71.42 169.62 Z" />
</g>
</svg>
